<svg xmlns="http://www.w3.org/2000/svg" viewBox="0 0 47 47"><defs><style>.cls-1{fill:#fff;fill-rule:evenodd;}</style></defs><title>Features_3</title><g id="Layer_2" data-name="Layer 2"><g id="Layer_1-2" data-name="Layer 1"><path class="cls-1" d="M11.17,13.46c2.53-2.14,4.16-4.7,5.46-2.49s5.67-.73,5.67-.73L24,10.7l2.49-3.85s-2.08-.22-3.09-.4c-1.66-.3-4.3-.73-8.34,2S8.64,15.61,11.17,13.46Zm7.43,1.31c.09.09.18.06,0,0Zm13.71,18a4,4,0,0,0-3-1.29c-.73.09-.64.92-1.56,1.1s-1.19,0-1.93,1-2.57.46-2,1.1,2.54,2.2,3.95,2.2c1.65,0,2.48-1.1,4.13-.83s1.38-2.39,2.66-2.2S32.77,33.6,32.31,32.77ZM21.39,21.21c-2.48-.28-.73-.46-2.11-.46-.92.83-1.19-.37-1.84-1.1s-.73-5.14.73-5a2.39,2.39,0,0,1,.43.08c-.15-.14-.28-.59.67-1.74,1.77-2.12-.37-.46-2-.46S13.86,18,13.4,18.73A4.42,4.42,0,0,1,10,20.29c-1.47,0-1.19.73-2,1.19s-.83-.46-1.65.09.18,3.12.18,4.68,2.29,3,2.48,4.31S13.13,32,13.13,32l1.29.92,1.84.37L17.9,31l2,2s.64,2.57,1.29,2.57.64-3.12.28-4a9.43,9.43,0,0,1-.46-2.2c-.18-.92.92-2.48,1.19-3.58s1.65-1.38,1.74-3.3S23.87,21.48,21.39,21.21ZM23.5,0A23.5,23.5,0,1,0,47,23.5,23.5,23.5,0,0,0,23.5,0Zm0,41.13a17.63,17.63,0,1,1,13-29.51,1.2,1.2,0,0,1-.2.51c-.17.26-.32.43-.43.6-.84.24-1.44.31-1.18-.15.73-1.29-3.21-2-4.41-1.93s-1.4,3.75-.92,4.13c-.06,0,2.75,4.24,2.75,4.5,0,.55.73,2.48,0,2.75s-2.29,4.59-1.56,5.14,4.13-2.11,4.13-2.11,2.79-.25,3.21-1.93c.14-.58,1.93-.7,3.14-1.09,0,.48.07,1,.07,1.45A17.63,17.63,0,0,1,23.5,41.13Z"/></g></g></svg>