<svg xmlns="http://www.w3.org/2000/svg" viewBox="0 0 43 43"><defs><style>.cls-1{fill:#fff;fill-rule:evenodd;}</style></defs><title>Features_1</title><g id="Layer_2" data-name="Layer 2"><g id="Layer_1-2" data-name="Layer 1"><path class="cls-1" d="M43,24.25v-5.5l-4.59-.37a17,17,0,0,0-.7-2.64l3.79-2.61L38.74,8.37l-4.17,2a17.36,17.36,0,0,0-1.93-1.93l2-4.17L29.87,1.5,27.25,5.3a17.1,17.1,0,0,0-2.64-.7L24.25,0h-5.5l-.37,4.6a17.08,17.08,0,0,0-2.64.7L13.13,1.51,8.37,4.26l2,4.17a17.23,17.23,0,0,0-1.93,1.93l-4.16-2L1.51,13.13,5.3,15.75a17,17,0,0,0-.7,2.64L0,18.75v5.5l4.59.37a17,17,0,0,0,.7,2.64L1.51,29.87l2.75,4.76,4.16-2a17.34,17.34,0,0,0,1.93,1.93l-2,4.16,4.76,2.75,2.61-3.79a17.16,17.16,0,0,0,2.64.7l.37,4.6h5.5l.37-4.6a17.07,17.07,0,0,0,2.64-.7l2.61,3.79,4.76-2.75-2-4.17a17.3,17.3,0,0,0,1.93-1.93l4.17,2,2.75-4.76L37.7,27.25a17.13,17.13,0,0,0,.7-2.64ZM21.5,25.8a4.3,4.3,0,1,1,4.3-4.3A4.3,4.3,0,0,1,21.5,25.8Z"/></g></g></svg>