<svg xmlns="http://www.w3.org/2000/svg" viewBox="0 0 20.08 24.66"><defs><style>.cls-1{fill:#fff;}</style></defs><title>Asset 1</title><g id="Layer_2" data-name="Layer 2"><g id="Layer_1-2" data-name="Layer 1"><path class="cls-1" d="M16.77,13.1a5.58,5.58,0,0,1,2.66-4.69A5.76,5.76,0,0,0,14.92,6C13,5.77,11.17,7.09,10.2,7.09S7.72,6,6.13,6A6,6,0,0,0,1,9.11c-2.17,3.77-.56,9.36,1.56,12.42,1,1.5,2.27,3.18,3.89,3.12s2.15-1,4-1,2.42,1,4.07,1,2.74-1.53,3.77-3a13.65,13.65,0,0,0,1.71-3.51A5.44,5.44,0,0,1,16.77,13.1Zm-3.1-9.16A5.43,5.43,0,0,0,14.95,0a5.52,5.52,0,0,0-3.63,1.87A5.17,5.17,0,0,0,10,5.68,4.58,4.58,0,0,0,13.66,3.94Z"/></g></g></svg>