<svg xmlns="http://www.w3.org/2000/svg" viewBox="0 0 21.57 24.66"><defs><style>.cls-1{fill:#fff;}</style></defs><title>header-android</title><g id="Layer_2" data-name="Layer 2"><g id="Layer_1-2" data-name="Layer 1"><path class="cls-1" d="M20,7.7a1.55,1.55,0,0,0-1.54,1.54v6.16a1.54,1.54,0,1,0,3.08,0V9.25A1.55,1.55,0,0,0,20,7.7ZM1.54,7.7A1.55,1.55,0,0,0,0,9.25v6.16a1.54,1.54,0,1,0,3.08,0V9.25A1.55,1.55,0,0,0,1.54,7.7Zm2.31,10A2.31,2.31,0,0,0,6.16,20h.77v3.08a1.54,1.54,0,1,0,3.08,0V20h1.54v3.08a1.54,1.54,0,0,0,3.08,0V20h.77a2.31,2.31,0,0,0,2.31-2.31V9.25H3.85ZM13.64,2.15l1-1.87A.19.19,0,1,0,14.28.1l-1,1.9a7,7,0,0,0-5,0L7.3.1A.19.19,0,1,0,7,.28l1,1.87a6.94,6.94,0,0,0-4,5.55H17.68A6.94,6.94,0,0,0,13.64,2.15ZM7.71,6.51A1.12,1.12,0,1,1,8.82,5.39,1.12,1.12,0,0,1,7.71,6.51Zm6.16,0A1.12,1.12,0,1,1,15,5.39,1.12,1.12,0,0,1,13.87,6.51Z"/></g></g></svg>