<svg xmlns="http://www.w3.org/2000/svg" viewBox="0 0 19 18"><defs><style>.cls-1{fill:#fff;}</style></defs><title>ic_goog</title><g id="Layer_2" data-name="Layer 2"><g id="Layer_1-2" data-name="Layer 1"><path class="cls-1" d="M9.48,14.46a2,2,0,0,0,0-.44q0-.21-.1-.39a1.35,1.35,0,0,0-.19-.37l-.23-.33a2.08,2.08,0,0,0-.29-.32l-.3-.28L8,12.06l-.34-.25-.36-.25L7,11.34l-.54,0a8.59,8.59,0,0,0-1.15.08,6.74,6.74,0,0,0-1.17.27,4.23,4.23,0,0,0-1.06.5,2.38,2.38,0,0,0-.75.81A2.28,2.28,0,0,0,2,14.13a2.32,2.32,0,0,0,.38,1.31,2.71,2.71,0,0,0,1,.91,5.49,5.49,0,0,0,1.3.49A5.91,5.91,0,0,0,6.07,17a5.34,5.34,0,0,0,1.22-.14,4.1,4.1,0,0,0,1.09-.42,2.13,2.13,0,0,0,.81-.79A2.32,2.32,0,0,0,9.48,14.46ZM8.18,5.14A5.82,5.82,0,0,0,8,3.76a7.1,7.1,0,0,0-.51-1.41,3.09,3.09,0,0,0-.91-1.13A2.07,2.07,0,0,0,5.29.78a1.82,1.82,0,0,0-1.56.75,2.92,2.92,0,0,0-.55,1.78A5,5,0,0,0,3.3,4.38a5.54,5.54,0,0,0,.38,1.12,5.23,5.23,0,0,0,.61,1,2.78,2.78,0,0,0,.84.73,2.1,2.1,0,0,0,1,.28,1.74,1.74,0,0,0,1.52-.65A2.91,2.91,0,0,0,8.18,5.14ZM6.76,0h4.73L10,.85H8.57A3.23,3.23,0,0,1,9.76,2.22,4.17,4.17,0,0,1,10.18,4a3.81,3.81,0,0,1-.25,1.42,3.15,3.15,0,0,1-.61,1q-.36.38-.71.7A4.27,4.27,0,0,0,8,7.83a1.21,1.21,0,0,0-.25.73,1,1,0,0,0,.18.55,2.56,2.56,0,0,0,.46.52l.63.52q.35.27.69.6a5.67,5.67,0,0,1,.63.71,3.23,3.23,0,0,1,.46.92A3.61,3.61,0,0,1,11,13.53a4,4,0,0,1-1.51,3.05A6.73,6.73,0,0,1,4.94,18a7.9,7.9,0,0,1-1.29-.11,6.79,6.79,0,0,1-1.32-.36,5,5,0,0,1-1.17-.63,2.92,2.92,0,0,1-.83-1A2.68,2.68,0,0,1,0,14.63,3.49,3.49,0,0,1,1.44,12,5.21,5.21,0,0,1,3,11.2a12.33,12.33,0,0,1,1.68-.39,12.78,12.78,0,0,1,1.62-.15,2.76,2.76,0,0,1-.69-1.61,1.51,1.51,0,0,1,0-.25,1.25,1.25,0,0,1,.05-.21l.09-.23a2.27,2.27,0,0,0,.08-.23,6.21,6.21,0,0,1-.76.05A3.94,3.94,0,0,1,2.33,7.12,3.46,3.46,0,0,1,1.18,4.46a4,4,0,0,1,1-2.71A4.58,4.58,0,0,1,4.74.22,9.68,9.68,0,0,1,6.76,0ZM19,3V4H16V7H15V4H12V3h3V0h1V3Z"/></g></g></svg>