<svg xmlns="http://www.w3.org/2000/svg" viewBox="0 0 15.01 15.01"><defs><style>.cls-1{fill:#fff;fill-rule:evenodd;}</style></defs><title>ic_linked</title><g id="Layer_2" data-name="Layer 2"><g id="Layer_1-2" data-name="Layer 1"><path class="cls-1" d="M11.43,15V9.35c0-1.37-.55-2.16-1.42-2.16a2.16,2.16,0,0,0-1.84,1,2.2,2.2,0,0,0-.2.94V15L5,15V4l2.59.18.15,1.88h.06A3.58,3.58,0,0,1,11,4.36c2.12,0,4,1.44,4,4.57v6ZM0,4H3V15L0,15Zm1.71-.7A1.61,1.61,0,0,1,0,1.65,1.62,1.62,0,0,1,1.76,0a1.61,1.61,0,0,1,1.7,1.65A1.63,1.63,0,0,1,1.71,3.3Z"/></g></g></svg>