<svg xmlns="http://www.w3.org/2000/svg" viewBox="0 0 20 20"><defs><style>.cls-1{fill:#fff;}</style></defs><title>ic_pin</title><g id="Layer_2" data-name="Layer 2"><g id="Layer_1-2" data-name="Layer 1"><path class="cls-1" d="M20,10a9.78,9.78,0,0,1-1.34,5A10,10,0,0,1,15,18.66,9.77,9.77,0,0,1,10,20a9.88,9.88,0,0,1-2.84-.42,8,8,0,0,0,1-2.14q.12-.44.7-2.75a2.18,2.18,0,0,0,1,.88,3.1,3.1,0,0,0,1.48.37,4.69,4.69,0,0,0,2.81-.89A5.77,5.77,0,0,0,16,12.6a8.75,8.75,0,0,0,.68-3.52,5.36,5.36,0,0,0-.77-2.79A5.86,5.86,0,0,0,13.7,4.18a6.7,6.7,0,0,0-3.32-.82,8.37,8.37,0,0,0-2.55.38,6.65,6.65,0,0,0-2,1A6.85,6.85,0,0,0,4.39,6.18a6,6,0,0,0-.87,1.69,5.68,5.68,0,0,0-.28,1.74A5.21,5.21,0,0,0,3.76,12a2.94,2.94,0,0,0,1.52,1.45q.39.16.49-.26l.1-.4c.05-.21.09-.34.1-.39a.6.6,0,0,0-.14-.56,3,3,0,0,1-.66-2A4.74,4.74,0,0,1,10.1,5.06a4.22,4.22,0,0,1,3.07,1.07,3.69,3.69,0,0,1,1.1,2.77,7.43,7.43,0,0,1-.89,3.76,2.62,2.62,0,0,1-2.29,1.55,1.59,1.59,0,0,1-1.28-.57,1.48,1.48,0,0,1-.3-1.36q.1-.45.35-1.22t.39-1.34a4,4,0,0,0,.15-1,1.65,1.65,0,0,0-.35-1.08,1.22,1.22,0,0,0-1-.43A1.66,1.66,0,0,0,7.68,8a3,3,0,0,0-.56,1.85,3.48,3.48,0,0,0,.33,1.59L6.16,16.86A8.62,8.62,0,0,0,6,19.17a10,10,0,0,1-4.34-3.66A9.69,9.69,0,0,1,0,10,9.78,9.78,0,0,1,1.34,5,10,10,0,0,1,5,1.34,9.78,9.78,0,0,1,10,0a9.78,9.78,0,0,1,5,1.34A10,10,0,0,1,18.66,5,9.78,9.78,0,0,1,20,10Z"/></g></g></svg>