<svg xmlns="http://www.w3.org/2000/svg" viewBox="0 0 17 13"><defs><style>.cls-1{fill:#fff;}</style></defs><title>ic_twi</title><g id="Layer_2" data-name="Layer 2"><g id="Layer_1-2" data-name="Layer 1"><path class="cls-1" d="M17,1.54a7.32,7.32,0,0,1-2,.52A3.34,3.34,0,0,0,16.53.24a7.26,7.26,0,0,1-2.21.8,3.59,3.59,0,0,0-2.55-1A3.39,3.39,0,0,0,8.28,3.28,3.1,3.1,0,0,0,8.37,4,10.12,10.12,0,0,1,1.18.6,3.12,3.12,0,0,0,.71,2.25,3.23,3.23,0,0,0,2.26,5,3.64,3.64,0,0,1,.68,4.57v0a3.34,3.34,0,0,0,2.8,3.22,3.71,3.71,0,0,1-1.58.06,3.47,3.47,0,0,0,3.26,2.28,7.28,7.28,0,0,1-4.33,1.4,7.43,7.43,0,0,1-.83,0A10.32,10.32,0,0,0,5.35,13a9.56,9.56,0,0,0,9.92-9.34q0-.21,0-.42A6.87,6.87,0,0,0,17,1.54Z"/></g></g></svg>