<svg xmlns="http://www.w3.org/2000/svg" viewBox="0 0 18.01 21.87"><defs><style>.cls-1{fill:#fff;fill-rule:evenodd;}</style></defs><title>ic_yout</title><g id="Layer_2" data-name="Layer 2"><g id="Layer_1-2" data-name="Layer 1"><path class="cls-1" d="M12.09,8.31a1.76,1.76,0,0,0,1.26-.75v.67h1.1V2.1h-1.1V6.78c-.24.35-.47.52-.69.52s-.23-.09-.26-.26a2.63,2.63,0,0,1,0-.43V2.1h-1.1V6.94a3.14,3.14,0,0,0,.1.91A.67.67,0,0,0,12.09,8.31Zm-3.34,0A1.5,1.5,0,0,0,10,7.68a2.42,2.42,0,0,0,.34-1.44V4.09A2.43,2.43,0,0,0,10,2.65,1.49,1.49,0,0,0,8.75,2a1.49,1.49,0,0,0-1.28.63,2.4,2.4,0,0,0-.34,1.44V6.24a2.39,2.39,0,0,0,.34,1.44A1.49,1.49,0,0,0,8.75,8.31ZM8.23,3.87c0-.57.17-.85.52-.85s.53.28.53.85V6.45c0,.57-.17.85-.53.85S8.23,7,8.23,6.45Zm-3.8,1V8.22H5.65V4.89L7.12,0H5.88L5.05,3.23,4.18,0H2.9l.78,2.29A20.42,20.42,0,0,1,4.43,4.89ZM17.7,11.23a2.28,2.28,0,0,0-1.95-1.79A59.9,59.9,0,0,0,9,9.19a59.9,59.9,0,0,0-6.74.25A2.28,2.28,0,0,0,.32,11.23,19.63,19.63,0,0,0,0,15.53a19.66,19.66,0,0,0,.31,4.3,2.28,2.28,0,0,0,1.95,1.79A59.89,59.89,0,0,0,9,21.87a59.89,59.89,0,0,0,6.74-.25,2.28,2.28,0,0,0,1.95-1.79,19.66,19.66,0,0,0,.32-4.3A19.7,19.7,0,0,0,17.7,11.23ZM5.14,12.47H3.83v7H2.62v-7H1.34V11.32H5.14Zm3.29,7H7.34V18.8a1.74,1.74,0,0,1-1.24.75.67.67,0,0,1-.7-.45,3.1,3.1,0,0,1-.1-.9V13.4H6.38v4.47a3.21,3.21,0,0,0,0,.43c0,.17.11.26.25.26s.45-.17.69-.51V13.4H8.43Zm4.13-1.82a4.91,4.91,0,0,1-.11,1.22.86.86,0,0,1-.87.68,1.48,1.48,0,0,1-1.12-.67v.59H9.37V11.32h1.09V14a1.47,1.47,0,0,1,1.12-.66.86.86,0,0,1,.87.68,4.75,4.75,0,0,1,.11,1.22Zm4.11-1H14.49v1.08c0,.56.18.84.56.84s.42-.15.49-.44a7.09,7.09,0,0,0,0-.74h1.11v.16c0,.35,0,.6,0,.71a1.59,1.59,0,0,1-.25.66,1.5,1.5,0,0,1-1.32.66,1.55,1.55,0,0,1-1.32-.62,2.36,2.36,0,0,1-.35-1.43V15.37a2.38,2.38,0,0,1,.34-1.43,1.54,1.54,0,0,1,1.3-.62,1.51,1.51,0,0,1,1.28.62,2.41,2.41,0,0,1,.34,1.43ZM11,14.31a.78.78,0,0,0-.54.27v3.7a.77.77,0,0,0,.54.27c.31,0,.47-.27.47-.82V15.14C11.47,14.59,11.31,14.31,11,14.31Zm4,0q-.55,0-.55.84v.56h1.09v-.56C15.58,14.59,15.4,14.31,15,14.31Z"/></g></g></svg>